<?xml version="1.0" standalone="no"?>
<!DOCTYPE svg PUBLIC "-//W3C//DTD SVG 20010904//EN"
 "http://www.w3.org/TR/2001/REC-SVG-20010904/DTD/svg10.dtd">
<svg version="1.0" xmlns="http://www.w3.org/2000/svg"
 width="512.000000pt" height="512.000000pt" viewBox="0 0 512.000000 512.000000"
 preserveAspectRatio="xMidYMid meet">
<metadata>
Created by potrace 1.14, written by Peter Selinger 2001-2017
</metadata>
<g transform="translate(0.000000,512.000000) scale(0.100000,-0.100000)"
fill="#000000" stroke="none">
<path d="M805 5108 c-133 -24 -263 -77 -379 -151 -69 -45 -197 -170 -249 -243
-44 -62 -108 -189 -132 -262 -45 -141 -45 -107 -42 -1927 l3 -1720 21 -77 c53
-188 125 -311 257 -444 112 -112 237 -190 376 -234 146 -47 62 -45 1905 -45
l1740 0 98 27 c101 29 225 85 305 140 60 40 199 179 239 239 46 67 109 196
128 261 16 58 20 74 35 163 5 28 9 811 9 1740 -1 1565 -2 1696 -18 1770 -23
107 -37 146 -83 240 -111 223 -307 398 -538 479 -168 58 -65 55 -1920 54
-1009 0 -1725 -4 -1755 -10z"/>
</g>
</svg>
